<svg xmlns="http://www.w3.org/2000/svg" xmlns:xlink="http://www.w3.org/1999/xlink" width="112.96099853515625" height="112.96099853515625" viewBox="0 0 112.96099853515625 112.96099853515625" fill="none">
<path d="M56.481 0L56.482 0L56.482 0.0025C72.077 0.0028 86.197 6.3252 96.417 16.5449C106.636 26.7644 112.958 40.8838 112.959 56.4786L112.961 56.4786L112.961 56.4814L112.959 56.4814C112.958 72.0771 106.636 86.1973 96.416 96.4168C86.197 106.636 72.078 112.958 56.483 112.958L56.483 112.961L56.48 112.961L56.48 112.958C40.884 112.958 26.764 106.636 16.545 96.4162C6.325 86.1967 0.00299835 72.0774 0.00299835 56.4825L0 56.4825L0 56.4794L0.00299835 56.4794C0.00299835 40.8841 6.325 26.7641 16.545 16.5444C26.764 6.3252 40.884 0.0031 56.479 0.0025L56.479 0L56.481 0ZM56.482 1.362L56.482 1.3648L56.479 1.3648L56.479 1.362C41.265 1.3626 27.486 7.5339 17.51 17.5093C7.534 27.4855 1.363 41.2645 1.362 56.4794L1.36501 56.4794L1.36501 56.4825L1.362 56.4825C1.363 71.6969 7.534 85.4756 17.51 95.451C27.486 105.427 41.265 111.599 56.48 111.599L56.48 111.596L56.483 111.596L56.483 111.599C71.697 111.599 85.476 105.427 95.451 95.4516C105.427 85.4759 111.599 71.6967 111.599 56.4814L111.597 56.4814L111.597 56.4786L111.599 56.4786C111.599 41.2642 105.427 27.4855 95.452 17.5099C85.476 7.5343 71.697 1.3623 56.482 1.362Z" fill-rule="evenodd"  fill="#003478" >
</path>
<path d="M56.4807 4.01669L56.4817 4.01669L56.4817 4.01779C70.9667 4.01809 84.0827 9.89119 93.5767 19.3853C103.07 28.8788 108.943 41.9941 108.944 56.4786L108.944 56.4814C108.943 70.9667 103.07 84.0826 93.5757 93.5764C84.0817 103.07 70.9667 108.943 56.4827 108.943L56.4827 108.944L56.4797 108.944L56.4797 108.943C41.9947 108.943 28.8787 103.07 19.3847 93.5759C9.89068 84.0821 4.01869 70.967 4.01769 56.4825L4.01669 56.4794C4.01769 41.9944 9.89068 28.8785 19.3857 19.3847C28.8787 9.89119 41.9937 4.01839 56.4787 4.01779L56.4787 4.01669L56.4807 4.01669ZM56.4817 4.47079L56.4817 4.47189L56.4787 4.47189L56.4787 4.47079C42.1207 4.47129 29.1187 10.294 19.7067 19.7061C10.2937 29.1189 4.47069 42.1211 4.47069 56.4794L4.47169 56.4794L4.47169 56.4825L4.47069 56.4825C4.47169 70.8403 10.2937 83.842 19.7057 93.2541C29.1187 102.667 42.1207 108.49 56.4797 108.49L56.4827 108.489C70.8407 108.49 83.8417 102.667 93.2537 93.255C102.667 83.8423 108.49 70.84 108.49 56.4814L108.489 56.4786C108.49 42.1208 102.667 29.1191 93.2547 19.707C83.8427 10.294 70.8397 4.47109 56.4817 4.47079Z" fill-rule="evenodd"  fill="#003478" >
</path>
<path d="M56.4804 20.87C75.9004 20.87 91.7714 36.5527 92.0834 55.9006L80.0874 55.9006L80.0874 57.0602L92.0834 57.0602C91.7714 76.4081 75.9004 92.0911 56.4804 92.0911C37.0604 92.0911 21.1894 76.4081 20.8774 57.0602L32.8724 57.0602L32.8724 55.9006L20.8774 55.9006C21.1884 36.5527 37.0604 20.87 56.4804 20.87ZM56.4804 29.2212L44.6764 36.036L32.8724 42.8507L32.8724 70.1101L39.7814 74.099C43.6794 71.5186 49.7184 69.8578 56.4804 69.8578C63.2414 69.8578 69.2804 71.5186 73.1784 74.0993L80.0874 70.1101L80.0874 42.8507L68.2834 36.036L56.4804 29.2212ZM55.1144 55.6378C58.8984 53.9671 61.8414 51.6248 64.5034 49.3537C66.1814 47.9659 67.0144 46.6407 67.0144 45.3534C66.9634 44.2683 66.1314 43.2334 64.5034 42.2495C64.0114 41.959 63.3924 41.8079 62.6484 41.8079C59.9914 43.2484 62.6784 44.6496 62.7614 45.4697C62.8484 46.3498 62.1094 47.4366 61.0224 48.2377C58.7004 49.9495 56.8054 50.6548 56.0744 50.6786C55.2784 50.7047 54.0804 50.2622 52.4524 49.2783C50.7744 48.4832 49.8784 47.7005 49.7894 46.9057C49.6034 45.8263 53.5684 42.6985 54.3704 42.1103C55.7454 41.3158 56.9824 40.1802 58.0684 38.7034C59.0014 37.328 59.4934 36.1924 59.5444 35.3089C59.5444 33.9602 58.7234 32.5153 57.1844 32.5709C55.3204 32.6381 54.5834 36.6735 53.5624 37.9998C52.4884 39.3953 50.8414 41.2001 48.4524 42.9939C46.8024 44.2321 44.5404 45.7526 44.5404 48.0917C44.5404 48.685 44.9314 49.2783 45.7144 49.8707C46.6604 50.5148 48.0864 51.1959 50.0044 51.9406C51.3424 52.4327 52.2814 52.9954 51.9984 53.2655C50.5024 53.8506 46.5364 56.0922 45.4994 57.4801C44.7264 58.515 44.1074 60.2419 45.7144 62.0733C49.7074 64.9703 54.7134 66.7017 57.5504 66.9441C61.7644 66.7672 65.6334 63.7341 67.3044 61.2533C68.0994 60.029 68.4654 59.0068 68.4154 58.2244C68.3224 56.5015 66.7934 54.7908 65.2354 54.1613C63.9584 53.4047 61.9794 54.0425 61.9794 55.7135C61.9794 57.1436 64.0784 57.0339 64.2764 58.2244C64.8274 60.5477 61.6514 62.6505 57.7644 62.8809C55.4564 63.0054 49.7974 61.0631 50.0804 59.3348C50.2864 58.0745 53.1754 56.4942 55.1144 55.6378ZM67.9374 77.1253C65.5134 75.1566 61.2804 73.8482 56.4804 73.8482C51.6804 73.8482 47.4464 75.1563 45.0234 77.125L56.4804 83.7399L67.9374 77.1253Z" fill-rule="evenodd"  fill="#003478" >
</path>
<path d="M34.7654 18.4555C34.9794 18.3475 35.2204 18.4425 35.4184 18.5306C35.7054 18.6451 35.8274 18.7126 35.9824 18.8574C36.0484 18.9195 36.1014 18.9946 36.1714 19.0298C36.2404 19.0649 36.3294 19.0621 36.4554 18.9847C36.5864 18.8555 36.5664 18.3807 36.7874 18.4895C36.9924 18.5947 36.8044 18.8444 36.8144 18.9901C36.8534 19.1789 36.8634 19.3904 36.9204 19.5687C37.0144 19.8674 37.0614 20.3096 37.1344 20.6424C37.3494 21.0554 37.3534 21.344 37.4694 21.7766C37.5754 22.026 37.6474 22.2956 37.7624 22.5527C37.8294 22.7075 37.9454 22.8733 37.9774 23.0346C38.0214 23.2248 38.0074 23.6094 37.8564 23.7602C37.7704 23.841 37.5964 23.8861 37.4924 23.9051C37.0984 23.987 36.7584 23.5323 36.6574 23.1712C36.5564 22.7911 36.4324 22.4521 36.3834 22.0569C36.2614 21.5166 36.0424 20.9953 35.8794 20.4723C35.7854 20.1741 35.6744 19.9601 35.5244 19.6866C35.4394 19.4635 35.3034 19.2889 35.1744 19.0899C35.0254 18.8657 34.7514 18.746 34.7654 18.4555ZM33.8694 15.7053C34.0604 15.5885 34.1024 15.5803 34.3134 15.6345C34.5754 15.7048 34.7494 15.7575 34.8944 15.9803C35.0254 16.1861 35.0844 16.3428 35.1884 16.5659C35.2154 16.6881 35.1374 16.8346 35.1344 16.9594C35.1244 17.1949 35.1864 17.5699 34.9974 17.7726C34.9854 17.784 34.9394 17.833 34.9244 17.8083C34.7494 17.6947 34.4864 16.8485 34.3384 16.6444C34.2554 16.3944 34.1004 16.2861 33.9674 16.0798C33.9264 16.0197 33.8604 15.9494 33.8334 15.8808C33.8194 15.798 33.8514 15.7498 33.8694 15.7053ZM38.8034 17.2539C38.9034 17.149 38.9924 17.0285 38.9944 16.9948C39.0134 16.7493 38.7784 16.7539 38.6034 16.8582L38.4084 17.0061C38.3104 17.098 38.3814 17.2355 38.4474 17.3304C38.4784 17.3721 38.5204 17.441 38.5734 17.441C38.6104 17.4421 38.7104 17.3542 38.8034 17.2539ZM38.9574 15.2359C38.9144 15.2818 38.8604 15.1874 38.8244 15.1202C38.8144 15.0979 38.7794 15.0658 38.7874 14.995C38.7974 14.9258 38.7474 14.7988 38.7114 14.6925C38.6394 14.4799 38.9164 14.2625 39.0504 14.0598C39.1624 13.89 39.1674 13.9328 39.2634 13.814C39.2824 13.797 39.3034 13.7729 39.3184 13.7491C39.3454 13.7012 39.3314 13.6859 39.3244 13.6641C39.3004 13.5822 39.2184 13.5073 39.1524 13.4753C39.0664 13.4455 38.6904 13.4212 38.7894 13.6105C38.8154 13.6624 38.8254 13.6754 38.8214 13.7216C38.8094 13.8285 38.8034 13.8115 38.7354 13.9104C38.6534 14.0315 38.5624 14.1667 38.4744 14.2636C38.4014 14.1979 38.3894 13.886 38.2404 13.6652C38.1944 13.5975 38.1264 13.5093 38.0514 13.4762C37.9164 13.4407 37.7504 13.3886 37.5854 13.477C37.5184 13.5127 37.4264 13.5569 37.3864 13.6099C37.3274 13.7262 37.5334 13.8546 37.7284 14.0264C37.9594 14.2305 38.2184 14.4436 38.1014 14.6483C38.0514 14.7092 38.0294 14.7685 37.9194 14.8016C37.8474 14.8237 37.7374 14.7047 37.6694 14.6562C37.6254 14.6128 37.5824 14.5743 37.5414 14.5295C37.4634 14.4791 37.1984 14.3297 37.1244 14.5139C37.1304 14.5479 37.1484 14.5695 37.1724 14.5922C37.2164 14.6259 37.2774 14.65 37.3124 14.707C37.3514 14.7608 37.3494 14.8277 37.3524 14.8867C37.3544 14.9062 37.3594 14.9224 37.3664 14.9394C37.3964 15.0434 37.5144 15.2186 37.5074 15.3127C37.5034 15.3927 37.4594 15.4723 37.4344 15.5454C37.3824 15.6305 36.3224 16.867 36.3364 16.8908C36.4344 17.0509 36.8774 16.9806 36.9984 16.9103C37.2124 16.7839 37.3484 16.4208 37.4754 16.2405C37.6024 16.0721 37.6014 15.9094 37.7224 15.7773C37.6674 15.688 37.8534 15.7884 37.9744 15.8249C38.0674 15.8703 38.1274 15.9604 38.2114 16.0191C38.2614 16.0548 38.2754 16.0594 38.3154 16.1093C38.3914 16.2107 38.3224 16.2833 38.2334 16.3899C38.1584 16.4358 38.1224 16.5461 38.0284 16.5617C37.9564 16.5741 37.7264 16.3502 37.6714 16.5727C37.6104 16.8029 37.9034 17.1266 37.9674 17.3539C38.0224 17.5337 38.0004 17.7142 38.0204 17.8985C38.0534 18.2196 38.0934 18.3994 37.9804 18.7052C37.9404 18.8163 37.9314 18.9691 37.9744 19.0743C38.0074 19.1843 38.2774 19.3722 38.3794 19.4C38.4414 19.4187 38.5004 19.3997 38.5594 19.3674C38.6214 19.3297 38.6784 19.2863 38.7024 19.2345C38.7564 19.1069 38.6984 18.9825 38.7054 18.856C38.7134 18.7239 38.7434 18.6069 38.7214 18.4776C38.6954 18.3294 38.5824 18.0221 38.6704 17.89C38.6974 17.8443 38.8734 17.6799 39.0104 17.5915C39.0734 17.549 39.1274 17.524 39.1554 17.5311C39.2794 17.5575 39.3574 17.8991 39.3594 18.0005C39.3604 18.049 39.3474 18.0816 39.3274 18.1091C39.2854 18.1681 39.2044 18.1981 39.1504 18.2551C39.0764 18.3007 38.9514 18.4337 38.9564 18.5337C38.9704 18.8073 39.3714 18.464 39.4664 18.4719C39.6364 18.4904 39.7764 18.9008 39.7664 19.0332C39.7634 19.0882 39.7384 19.1367 39.6944 19.1718C39.6154 19.2367 39.4714 19.2747 39.3784 19.3127C39.2254 19.3773 38.8584 19.5803 38.8504 19.7501C38.8384 19.9987 39.2484 19.9321 39.3874 19.8688C39.5104 19.8124 39.6484 19.7319 39.7814 19.6588C39.8164 19.7149 39.8604 19.7416 39.8694 19.8102C39.8844 19.9652 39.7974 20.2875 39.7894 20.4746C39.7614 20.6095 39.5984 20.9469 39.8184 21.0169C39.9524 21.0585 40.0724 20.8363 40.1394 20.7686C40.1844 20.7144 40.2464 20.6767 40.2784 20.6152C40.3334 20.4383 40.3574 20.351 40.4374 20.1954C40.4624 20.1353 40.4794 20.0744 40.4944 20.0134C40.5804 19.6126 40.5044 19.1219 40.6134 18.8946C40.6654 18.7818 40.7824 18.7049 40.8674 18.6043C40.9024 18.5578 40.9374 18.5159 40.9724 18.4739C41.0934 18.3342 41.2114 18.2086 41.3204 18.0487C41.4314 17.911 41.6274 17.6102 41.6654 17.4396C41.6974 17.3046 41.6744 17.1544 41.6474 17.0243C41.6294 16.9528 41.5684 16.8885 41.4984 16.8732C41.1974 16.8046 40.8414 17.0606 40.5304 16.8361C40.4044 16.7451 40.4724 16.5435 40.3234 16.446C40.2204 16.3749 40.0764 16.5166 39.9834 16.4335C39.9224 16.3766 39.9484 16.2754 39.8804 16.2096C39.7994 16.1322 39.7864 16.1532 39.7164 16.0605C39.6594 15.9885 39.6974 15.8096 39.7444 15.7396C39.7854 15.6773 39.7494 15.6917 39.8004 15.6359C39.9064 15.5137 40.0844 15.1917 40.0554 15.0451C40.0304 14.9048 39.8714 14.7529 39.7284 14.75C39.6434 14.7489 39.5374 14.7894 39.4534 14.8198C39.3354 14.8646 39.2684 14.9213 39.1754 14.9986C39.1244 15.0304 39.0394 15.2019 38.9574 15.2359ZM40.6934 18.0175C40.6224 18.1321 40.5294 18.2299 40.4504 18.246C40.3184 18.2766 40.1254 17.9319 40.1054 17.8217C40.0924 17.7689 40.1034 17.7037 40.1174 17.6499C40.1474 17.5461 40.2234 17.4549 40.2954 17.369C40.3384 17.3179 40.3834 17.2658 40.4224 17.2148C40.4824 17.185 40.5424 17.1609 40.6064 17.1754C40.7794 17.2196 40.8844 17.5206 40.8534 17.6918C40.8394 17.7661 40.7754 17.8993 40.6934 18.0175ZM41.8524 19.9091C41.8774 19.8445 41.8964 19.781 41.8924 19.7163C41.8904 19.5672 41.6074 19.3269 41.4874 19.2614C41.3164 19.2019 41.1384 19.2242 41.1304 19.0581C41.1774 19.0292 41.2264 19.0029 41.2834 18.981C41.3854 18.9348 41.4884 18.9045 41.5824 18.9034C41.9784 18.932 42.0424 18.9088 42.4004 19.0783C42.4764 19.1191 42.6074 19.165 42.6294 19.2619C42.6544 19.3776 42.5604 19.775 42.4984 19.8791C42.4404 19.9681 42.2034 20.1208 42.0104 20.1668C41.9114 20.1892 41.8184 20.1812 41.7744 20.1098C41.7994 20.0452 41.8284 19.9771 41.8524 19.9091Z" fill-rule="evenodd"  fill="#003478" >
</path>
<path d="M27.2416 28.1038C27.3306 28.063 27.4266 28.0397 27.4936 28.0394C27.6816 28.0278 27.8116 28.148 27.9806 28.1797C28.1396 28.1973 28.4766 28.1687 28.4346 28.4281C28.3966 28.5094 28.3616 28.5933 28.3256 28.6769C28.2956 28.7773 28.3116 28.9014 28.2646 28.9981L28.2076 29.0857C28.1256 29.211 27.9926 29.3791 27.8956 29.442C27.8306 29.4837 27.7376 29.4766 27.6696 29.4522C27.3036 29.3337 27.4676 29.1016 27.3386 28.8759C27.2686 28.7934 26.9876 28.5261 26.9736 28.4482C26.9406 28.29 27.0866 28.1741 27.2416 28.1038ZM25.3786 24.0361C25.5356 23.6162 25.6816 23.1791 25.8616 22.964C26.2086 22.6182 26.6816 22.9663 26.6296 23.3662C26.5316 23.6633 26.4166 24.0698 26.2666 24.3348C26.2216 24.4199 26.1166 24.4828 26.0446 24.5539C26.0226 24.582 25.9996 24.6101 25.9716 24.6381C25.8446 24.7677 25.7126 24.887 25.5846 25.0137C25.4586 25.0942 25.2956 25.0857 25.1586 25.1433C25.0026 25.2048 24.8906 25.5826 24.6886 25.5092C24.6606 25.499 24.6226 25.4746 24.5886 25.4395C24.6366 25.1855 24.8976 25.0211 24.9996 24.823C25.1446 24.6373 25.2636 24.3402 25.3786 24.0361ZM27.2526 25.9404C27.4446 26.0237 27.7306 26.1005 27.8056 26.0549C27.9046 25.9993 27.9406 25.8721 27.9866 25.7785C28.2276 25.2805 27.7756 25.3888 27.5216 25.1005C27.5066 25.0775 27.4236 24.9746 27.4006 24.9973C27.2936 25.0741 27.0626 25.5095 27.0446 25.7286C27.0426 25.7723 27.0456 25.8077 27.0626 25.8295C27.0856 25.8604 27.1596 25.9024 27.2526 25.9404ZM28.7526 25.052C28.5156 25.0251 28.2356 24.98 28.1176 24.9548C27.9606 24.9227 27.8396 24.8745 27.7056 24.7935C27.6426 24.7748 27.5196 24.7765 27.4776 24.7036C27.4696 24.6954 27.6756 24.1826 27.7166 24.082L27.7426 24.025C27.8036 23.9062 27.9176 23.743 28.0436 23.7781C28.1476 23.8067 28.3096 23.9402 28.4036 24.0046C28.6816 24.1545 28.8746 24.3833 29.1466 24.5287C29.2286 24.6115 29.3056 24.6824 29.3996 24.7524C29.5846 24.9406 29.2536 25.0636 29.1036 25.0755C29.0396 25.0789 28.9066 25.0693 28.7526 25.052ZM31.8086 24.3093L31.7066 24.2112C31.6136 24.1217 31.4956 24.0797 31.3976 23.9862C31.3056 23.8926 31.2116 23.8266 31.1196 23.7328C31.0546 23.6639 30.8616 23.451 30.7266 23.3708C30.6846 23.3455 30.6226 23.3302 30.5756 23.339C30.5426 23.4323 30.5616 23.4635 30.5766 23.5491C30.6576 23.7699 30.8426 23.8796 30.9786 24.0511C31.0956 24.2022 31.5166 24.6305 31.5286 24.83C31.5496 25.2555 30.7676 24.8522 30.6916 24.8C30.4266 24.643 30.1546 24.5307 29.9016 24.3615C29.8026 24.3062 29.6876 24.2563 29.5836 24.1959C29.2726 23.9808 28.8956 23.7926 28.6106 23.5788C28.5026 23.5012 28.3246 23.3212 28.2986 23.2052C28.2876 23.1681 28.4656 22.8135 28.4926 22.7276C28.5886 22.5739 28.7596 22.4892 28.7086 22.3109L28.5956 22.1006C28.4906 21.9231 28.4036 21.8245 28.1906 22.03C28.1436 22.0762 28.1136 22.0974 28.0866 22.151C27.9256 22.3095 27.9466 22.619 27.6976 22.6627C27.6626 22.6655 27.6186 22.6703 27.5836 22.6542C27.4666 22.5986 27.3886 22.4685 27.2946 22.3735C27.1496 22.2562 27.0796 22.1669 26.9586 22.032C26.8286 21.8996 26.7266 21.7511 26.5956 21.6181C26.4426 21.4083 26.2326 21.2485 26.0596 21.0537C25.8626 20.7632 25.6836 20.3672 25.1726 20.2408C24.9666 20.3071 24.6716 20.3204 24.5006 20.499C24.3716 20.6334 24.1046 20.8834 24.3346 20.9987C24.3406 21.0461 24.4666 21.0996 24.6016 21.1059C24.9056 21.1198 25.1076 21.3789 25.1876 21.4282L25.2796 21.4835C25.4126 21.5759 25.6816 21.8165 25.7956 21.9265C26.1866 22.3137 26.6466 22.6649 27.0716 23.017C27.1826 23.1097 27.4006 23.1672 27.4496 23.3189C27.4826 23.4221 27.4276 23.5355 27.3656 23.6418C27.3276 23.705 27.2916 23.7693 27.2706 23.8257C27.2456 23.9479 26.7176 25.071 26.5986 25.2751C26.4456 25.643 26.2116 26.0419 26.0296 26.4121L25.8676 26.7071C25.5386 27.3058 25.1306 27.9802 24.7276 28.4901C24.6506 28.5876 24.3616 28.9383 24.4346 29.0449C24.5136 29.1628 24.9616 29.0809 25.1306 29.0831C25.3566 29.0231 25.5156 29.0134 25.6966 28.8459C25.8416 28.7036 25.8496 28.5922 25.9216 28.4456C26.0336 28.243 26.2206 27.7112 26.3966 27.2452C26.5496 26.8452 26.6876 26.4957 26.7806 26.4379C26.8766 26.4092 26.9876 26.4787 27.0566 26.5359C27.1776 26.6842 27.3196 26.816 27.4276 26.9691C27.5166 27.072 27.6286 27.1675 27.6916 27.2809C27.7326 27.3543 27.8476 27.6913 27.8936 27.7265C27.9686 27.7781 28.1746 27.7608 28.2586 27.7271C28.4036 27.6718 28.5876 27.5377 28.6736 27.3843C28.6936 27.3481 28.7066 27.307 28.7166 27.2707C28.7356 27.1442 28.6806 26.8772 28.6066 26.7823C28.5196 26.6728 28.3536 26.6068 28.3286 26.4676C28.3106 26.3667 28.4166 26.2788 28.4376 26.1876C28.4686 26.0753 28.4816 25.7476 28.6426 25.7737C28.7106 25.7831 28.7706 25.8324 28.8266 25.8587C28.9026 25.8981 28.9956 25.9044 29.0696 25.9551C29.5606 26.2757 29.2666 26.9356 29.1816 27.3722C29.1566 27.5116 29.1256 27.6562 29.0866 27.8042C29.0016 28.1591 28.8886 28.5295 28.7696 28.8439C28.7006 29.0265 28.6256 29.2402 28.5606 29.4443L28.4926 29.6591C28.3496 30.0753 28.2576 30.4282 28.0496 30.8216C27.8126 31.0541 27.7026 31.3588 27.4666 31.6077C27.4246 31.6596 27.2716 31.941 27.3186 32.0255C27.4346 32.1066 27.8266 32.1528 27.9076 32.1451C28.1286 32.1301 28.3446 31.9719 28.5406 31.8756C28.6526 31.8191 28.7906 31.7965 28.8926 31.7094C28.9576 31.6562 29.0276 31.5813 29.0586 31.5187C29.2366 31.1156 29.3696 30.8214 29.4536 30.3522C29.5836 29.7533 29.7126 29.1597 29.8356 28.5655C29.9556 27.9643 30.0666 27.3585 30.1566 26.7443C30.1626 26.6624 30.1746 26.5855 30.1886 26.5116C30.2316 26.2791 30.2956 26.0535 30.2836 25.8151C30.2706 25.6708 30.1836 25.5288 30.2056 25.3828C30.2426 25.1118 30.5506 25.45 30.6166 25.5047C30.7326 25.596 30.8756 25.679 31.0086 25.7643C31.1866 25.8562 31.3206 25.931 31.4886 26.0368C31.9346 26.2179 32.2926 26.4512 32.7536 26.5541C32.8556 26.5773 32.9506 26.6419 33.0616 26.6405C33.2396 26.6385 33.3706 26.4064 33.3876 26.2598C33.3796 26.1328 33.3796 26.0294 33.3956 25.8516C33.3926 25.571 33.2016 25.3023 32.9576 25.1234C32.7756 25.0095 32.6396 24.8388 32.4616 24.7379C32.1946 24.5942 32.0206 24.4927 31.8096 24.3093L31.8086 24.3093ZM27.6366 20.0678C27.9176 19.8768 28.3346 19.7767 28.6336 19.8405C28.7456 19.8666 28.9376 20.0092 29.0586 20.0698C29.1466 20.1333 29.2456 20.298 29.3406 20.3882C29.4846 20.5466 29.4966 20.7292 29.4536 20.9248C29.4316 21.0106 29.4286 21.0951 29.3846 21.1773C29.2806 21.3602 29.1396 21.4401 28.9936 21.4475C28.7856 21.4568 28.5656 21.3205 28.3996 21.1408C28.2566 20.9877 28.1686 20.7654 27.9946 20.5891C27.7976 20.4018 27.4596 20.5174 27.5316 20.143C27.5646 20.1152 27.5986 20.0865 27.6366 20.0678Z" fill-rule="evenodd"  fill="#003478" >
</path>
<path d="M75.1677 14.8354C75.4617 14.9748 75.4567 15.1015 75.5167 15.3144C75.5447 15.4128 75.6377 15.512 75.6217 15.6384C75.6137 15.6968 75.6407 15.73 75.6467 15.781C75.6617 15.9383 75.3937 16.2419 75.2337 16.5699C75.1357 16.768 75.0507 16.8253 74.9607 16.88C74.8077 16.9741 74.7557 17.1331 74.6987 17.1978C74.5977 17.3931 74.4747 17.5728 74.3737 17.7684C74.3317 17.8112 74.2947 17.8129 74.2397 17.8965C74.2467 17.8999 74.2107 17.9864 74.2927 17.9509C74.3107 18.0153 74.5067 18.0524 74.6667 18.0629C74.7637 18.0691 74.8347 18.0099 74.9387 18.0374C75.1437 18.0918 75.3847 18.0808 75.5097 18.036C75.6347 17.8937 75.6727 17.6947 75.7767 17.5663C75.8077 17.5816 75.8387 17.5966 75.8697 17.6119C76.0747 18.1207 76.2387 18.1029 76.2517 18.2551C76.2657 18.3982 76.2207 18.6828 75.9847 18.8929C75.8907 18.8824 75.7847 18.8804 75.6967 18.8642C75.3577 18.8025 75.1167 18.7693 74.8097 18.7202C74.6387 18.7319 74.3997 18.7568 74.2547 18.7446C74.0257 18.7254 73.8947 18.5587 73.7187 18.6505C73.6547 18.68 73.5827 18.7667 73.5677 18.8495C73.6457 18.9669 73.8577 19.1279 73.9757 19.29C74.0287 19.3626 74.0937 19.5845 74.1447 19.7844C74.2397 20.1636 74.4157 20.4216 74.6697 20.7204C74.8657 20.9517 75.4267 20.9384 75.5457 21.1844C75.5457 21.2604 75.4837 21.3511 75.4307 21.3803C75.0277 21.4466 74.8037 21.67 74.2837 21.742C74.1257 21.7638 73.9877 21.7046 73.8717 21.647C73.8397 21.3967 73.7217 21.4013 73.6637 21.266C73.6017 20.9843 73.4987 20.654 73.5057 20.4063C73.5207 20.0911 73.4727 19.6307 73.4947 19.3379C73.5057 19.1854 73.4807 19.148 73.4377 19.1171C73.0597 19.5361 72.2927 20.1869 71.1867 20.1903C70.6227 20.1923 70.2307 19.7665 70.1597 19.3802C70.2007 19.3099 70.2387 19.2557 70.2797 19.1851C70.4937 19.2625 70.5797 19.3317 70.7927 19.4071C71.0957 19.5142 71.1957 19.531 71.6737 19.4391C71.8447 19.4062 72.0337 19.3756 72.2257 19.2702C72.5187 19.11 72.7617 18.8438 72.8037 18.5598C72.7757 18.5524 72.7217 18.5499 72.6927 18.5425C72.6847 18.5482 72.6787 18.5561 72.6697 18.559C72.3297 18.6675 72.2087 18.5893 71.9397 18.621C71.8367 18.6332 71.7037 18.7032 71.5527 18.7166C71.4697 18.7239 71.4287 18.7699 71.3497 18.7812C71.2407 18.7968 71.0727 18.7409 70.9627 18.6582C70.8487 18.5717 70.8207 18.4016 70.7017 18.2865C70.9007 17.8826 70.9777 18.0286 71.2557 17.6811C71.3327 17.693 71.4117 17.6975 71.4637 17.6984C71.5937 17.7616 71.7067 17.7738 71.8367 17.837C71.9637 17.8528 72.4837 17.8591 72.8797 17.8747C73.0867 17.8829 73.2817 17.9277 73.3217 17.9053C73.4237 17.8384 73.5287 17.5597 73.6277 17.4427C73.7197 17.3347 73.7277 17.2479 73.7757 17.1626C74.0267 16.7261 74.3037 16.1798 74.4097 15.8714C74.4827 15.6583 74.5207 15.6157 74.6087 15.4726C74.7137 15.3042 74.7347 15.0689 74.8667 14.902C74.9627 14.8776 75.0727 14.86 75.1677 14.8354Z" fill-rule="evenodd"  fill="#003478" >
</path>
<path d="M90.4666 21.8046C90.5416 21.9041 90.6556 21.96 90.7306 22.0595C90.9026 22.4226 90.8426 22.7049 90.5956 23.0975C90.3666 23.0459 90.1916 23.22 89.7496 23.0771C89.6676 23.0507 89.5896 23.1097 89.5036 23.1108C89.5086 23.18 89.5116 23.2492 89.5166 23.3183C90.1116 23.4756 90.8926 23.6398 91.1826 24.207C91.0996 24.3703 91.0336 24.6265 90.9516 24.7901C90.8636 24.9661 90.7596 25.0497 90.6706 25.226C90.1416 25.444 89.6216 25.685 88.6516 25.3346C88.4636 25.2669 88.2826 25.433 88.0866 25.3916C87.7546 25.3221 87.6956 25.1886 87.1616 25.0228C86.6636 24.8677 86.3516 24.6758 85.9986 24.5171C86.0146 24.499 86.0306 24.4805 86.0476 24.4624C86.3236 24.4457 86.5146 24.3927 86.8766 24.4125C87.4386 24.1353 87.9896 23.6996 88.4736 23.8073C88.6166 23.868 88.6796 23.9371 88.7006 24.4596C88.8736 24.4491 88.9846 24.4632 89.2186 24.4284C89.4156 24.2365 89.3116 24.2495 89.3586 24.1599C89.2666 24.0868 89.0456 23.8626 88.9166 23.7733C88.8356 23.7174 88.8396 23.794 88.7826 23.7481C88.5676 23.5768 88.4806 23.4603 88.2656 23.2891C88.1926 23.3234 88.0976 23.3385 88.0246 23.373C87.9286 23.4181 87.8556 23.4825 87.7596 23.5275C87.7006 23.4533 87.6176 23.4396 87.5796 23.3093C87.5466 23.1962 87.5366 22.871 87.4416 22.7834C86.8096 22.2009 86.5716 22.0212 86.5716 22.0212C86.5716 22.0212 86.4816 21.8483 86.5446 21.8571C86.6606 21.8735 86.7396 21.9027 86.6686 21.8797C87.0256 21.9971 86.9386 21.9812 87.3916 22.1669C87.4546 22.1924 87.5536 22.1337 87.6246 22.1309C87.7606 22.1113 87.7616 21.9206 87.7646 21.8358C87.7756 21.5206 87.8086 21.3423 87.9836 21.1731C88.0176 21.1711 88.0526 21.1688 88.0866 21.1668C88.1606 21.2317 88.2336 21.2969 88.3066 21.3619C88.3596 21.6705 88.4126 21.9798 88.4666 22.2885C89.1046 22.511 89.7826 22.2423 90.4666 21.8046Z" fill-rule="evenodd"  fill="#003478" >
</path>
<path d="M82.1934 26.6913C82.0674 26.5821 81.8004 26.418 81.5824 26.3301C81.2344 26.1901 80.8044 26.0696 80.5604 25.9665C80.2884 25.8522 80.1014 25.6274 80.0954 25.3743C80.0274 25.1285 80.0694 24.6858 80.2884 24.4363C80.4164 24.5248 80.6314 24.6174 80.7664 24.7314C81.4334 25.2938 82.0934 25.9163 82.7054 26.1637C82.8424 26.0625 83.0014 25.931 83.0674 25.7992C83.1844 25.5651 83.1814 25.3836 83.4154 25.1138C83.5014 25.1263 83.4334 25.1265 83.5194 25.1124C83.8114 25.3236 84.3084 25.4863 84.7774 25.5534C85.1844 25.6118 85.5664 25.6076 85.8084 25.3876C85.2244 25.0024 84.6314 24.942 84.0544 24.7402C83.3414 24.4913 82.7014 24.1758 81.9804 24.0307C81.5424 23.9425 80.8054 23.9505 80.4984 23.7977C79.6004 23.3509 79.5664 21.9917 80.0384 21.7397C80.0734 21.7403 80.1054 21.7335 80.1424 21.738C81.0874 22.7369 81.9554 22.8758 82.8244 23.3146C83.8414 23.828 84.4554 24.2773 85.2224 24.4099C85.2564 24.3748 85.2904 24.3396 85.3244 24.3045C85.2944 24.1999 85.2964 24.2022 85.3204 24.097C85.0754 23.8694 84.9204 23.7815 84.6904 23.8444C84.5694 23.8773 84.4994 23.703 84.3254 23.5414C84.4404 23.4207 84.4724 23.3827 84.5824 23.3815C84.7874 23.383 85.4564 23.7118 85.4624 23.2117C85.5114 22.9702 85.3124 22.5453 85.5544 22.4832C85.5724 22.4657 85.5894 22.4481 85.6064 22.4305C86.2694 23.1304 86.0144 23.2015 86.1914 23.3042C86.5444 23.3016 86.6744 22.9654 86.9404 23.0479C87.0214 23.0731 87.1104 23.1712 87.2294 23.2877C87.2124 23.3053 87.1954 23.3229 87.1784 23.3404C87.2874 23.7979 86.8194 23.9799 86.3934 24.0698C86.2594 24.0984 86.1634 24.1934 86.0764 24.2668C86.0414 24.4216 86.0384 24.4879 85.9014 24.6591C86.0084 24.7439 86.1134 24.8394 86.2244 24.8782C86.7094 25.0483 87.1864 25.0157 87.6034 25.5928C87.2504 26.7468 86.8024 26.9008 86.0324 26.4897C85.6254 26.2729 85.1764 26.0923 84.7834 25.986C84.6314 25.9446 84.4024 25.8653 84.3024 25.8973C84.2334 25.9194 84.1994 26.0036 84.1054 26.0898C84.1224 26.1626 84.1654 26.2879 84.1524 26.3517C84.1204 26.5226 83.9314 26.6556 83.9414 26.8047C83.9454 26.8738 84.0094 26.9288 84.1214 27.0243C84.5694 27.2766 84.7634 27.2452 84.7524 27.5337C84.8204 27.7358 84.7754 27.9224 84.6284 28.129C84.5494 28.1556 84.4164 28.1605 84.3054 28.1375C84.1874 28.1128 84.0944 28.0598 84.1224 28.0726C83.8114 27.9294 83.6264 27.4385 83.3464 27.2962C82.8884 27.8059 82.4954 28.2092 82.1064 28.4465C81.9334 28.5519 81.8214 28.6302 81.6254 28.6849C81.4854 28.7237 81.3754 28.7923 81.2164 28.7651C81.0104 28.7299 81.0174 28.7739 80.8294 28.654C80.6914 28.5664 80.5274 28.4578 80.4164 28.2923C80.2924 28.1077 80.3724 28.0386 80.2934 27.6219C80.2744 27.3747 80.2064 27.1176 80.1664 26.5677C80.3424 26.6167 80.2934 26.6641 80.4954 26.848C80.4844 27.0192 80.9004 27.464 81.1454 27.4572C81.2704 27.4416 81.2964 27.4459 81.3634 27.4158C81.6384 27.2948 81.9334 26.9798 82.1934 26.6913Z" fill-rule="evenodd"  fill="#003478" >
</path>
<path d="M84.4248 21.3052C83.9988 21.4602 83.7918 21.4852 83.4908 21.7094C83.1018 21.9999 83.3288 22.3424 82.6728 22.5218C82.4548 22.4129 82.3438 22.4382 82.0868 22.1989C82.0948 22.0391 82.0538 21.8693 82.0568 21.8029C82.0648 21.6232 82.0498 21.5745 82.0578 21.3945C82.1038 21.1861 82.1728 21.1232 82.2588 21.0225C82.4188 20.8366 82.5308 20.5968 82.6648 20.3904C82.8898 20.0293 83.1218 19.5678 83.3718 19.0885C83.4408 19.0873 83.4928 19.1596 83.5048 19.2979C83.4948 19.4485 83.5238 19.669 83.4798 19.9261C83.3518 20.673 83.3258 20.592 83.2148 20.8284C83.1678 20.929 83.1628 20.9846 83.2268 21.1374C83.2088 21.2488 83.4248 21.2439 83.4898 21.2468C83.8938 21.2643 83.7798 21.2853 84.1528 21.2896C84.2378 21.2896 84.3808 21.2626 84.4238 21.3052L84.4248 21.3052Z" fill-rule="evenodd"  fill="#003478" >
</path>
<path d="M85.7498 19.1256C85.8108 19.1854 85.8808 19.2577 85.9418 19.3172C85.9558 19.6956 86.0198 20.1421 86.0608 20.5571C85.9838 21.1578 85.3018 21.9384 84.6338 22.405C84.5138 22.4886 84.4178 22.6315 84.3018 22.6876C84.1498 22.7613 84.0588 22.725 83.9228 22.7463C83.7438 22.5462 83.7448 22.3922 83.8388 22.2202C83.9148 22.0807 84.0418 21.939 84.1578 21.7768C84.2578 21.6153 84.3358 21.6802 84.4698 21.5093C84.6798 21.2383 84.9208 20.7805 84.8858 20.8576C84.9718 20.6699 84.9968 20.5293 85.0968 20.3575C85.4278 19.7892 85.6428 19.3498 85.7498 19.1256Z" fill-rule="evenodd"  fill="#003478" >
</path>
<path d="M47.5461 11.6529C47.9281 11.5231 47.8861 11.662 48.1531 11.787C48.6071 11.9996 48.7471 12.2045 48.7891 12.4098C48.8531 12.7309 48.6351 13.0028 48.6821 12.9242C47.8681 14.3008 47.8281 14.3243 47.8531 14.4538C47.8721 14.4705 47.9741 14.4986 47.9991 14.5051C48.4531 14.3949 48.5571 14.5026 48.6351 14.5459C48.8271 14.6517 49.1171 14.8991 49.0311 15.1948C49.0141 15.3311 48.8401 15.7354 48.7601 15.9105C48.6251 16.2079 48.6541 16.2258 48.6141 16.3139C48.3761 16.8338 48.6711 16.9594 48.7461 17.1011C48.7741 17.109 48.8021 17.1173 48.8301 17.1255C49.0601 16.9778 48.9991 16.374 49.1361 16.1385C49.1991 16.1274 49.2111 16.2226 49.2391 16.2839C49.1861 16.4556 49.2101 16.6164 49.1991 16.8105C49.1511 17.6941 49.0821 17.8367 49.1031 18.1406C49.1171 18.339 49.0661 18.5601 49.0291 18.6174C49.0021 18.7534 48.9291 19.0562 48.8741 19.167C48.6151 19.2597 48.3671 19.1089 48.2231 18.9425C48.1181 18.8223 48.1401 18.6661 48.1351 18.5916C48.2031 18.1964 48.0601 17.7672 48.0371 17.7049C47.8991 17.4934 47.7271 17.4628 47.5361 17.3843C47.2831 16.7184 47.5321 16.8111 47.6531 16.3519C47.6801 16.2507 47.7861 15.8505 47.7251 15.7904C47.5031 15.8071 47.3651 15.9216 47.1181 16.1163C46.9941 16.2139 46.8501 16.2499 46.7551 16.1543C46.6941 16.1623 46.5421 16.1291 46.4801 16.137C46.2901 16.1008 46.2501 15.6503 46.1511 15.3793C46.2351 15.3204 46.1951 15.2339 46.2121 15.1435C46.2451 15.1095 46.3731 14.8904 46.4071 14.8563C46.6231 14.4754 46.6291 14.3821 46.7381 14.142C46.8651 13.8634 47.0991 13.3991 47.4601 12.2459C47.5191 12.0563 47.4141 11.9865 47.5111 11.6844C47.5231 11.6739 47.5351 11.6634 47.5461 11.6529Z" fill-rule="evenodd"  fill="#003478" >
</path>
<path d="M50.677 10.6826C51.143 10.4638 51.489 10.4547 51.935 10.5103C52.023 10.5213 52.138 10.5043 52.212 10.5403C52.427 10.6452 52.585 10.9173 52.834 10.9706C52.85 11.0111 52.895 11.0608 52.911 11.1013C52.885 11.1237 52.916 11.1999 52.919 11.2405C52.925 11.3221 52.931 11.3848 52.917 11.4497C52.908 11.4899 52.752 11.5772 52.723 11.6095C52.538 11.8142 52.371 11.8474 52.08 11.7793C51.908 11.241 50.328 11.7813 50.587 10.9511C50.619 10.8496 50.631 10.7767 50.677 10.6826Z" fill-rule="evenodd"  fill="#003478" >
</path>
<path d="M52.1137 12.4806C52.2557 12.433 52.3987 12.3857 52.5417 12.338C52.5527 12.3497 52.5627 12.3613 52.5737 12.3726C52.5717 12.4747 52.5497 12.6187 52.5497 12.706C52.5597 12.7488 52.5697 12.7916 52.5797 12.8341C52.5487 13.0606 52.3937 13.5311 52.6797 13.7426C52.8187 13.8458 53.0297 13.8186 53.2027 13.8523C53.3517 13.8815 53.5667 13.9994 53.6827 14.1176C53.7277 14.1633 53.8517 14.2659 53.8577 14.3858C53.8637 14.5207 53.6617 14.9034 53.5867 15.025C53.5067 15.1545 53.3997 15.5959 53.3617 15.7589C53.2247 16.3482 53.0087 16.5333 52.5777 16.9806C52.4197 17.1433 52.0367 17.1643 51.9127 17.0628C51.8617 17.0056 51.8147 16.8808 51.8147 16.8808C51.8147 16.8808 51.8377 16.7663 51.8627 16.7162C51.9907 16.4537 52.2117 16.1753 52.2947 16.0293C52.3577 15.9176 52.4067 15.5279 52.4067 15.5279C52.4067 15.5279 52.4017 15.3428 52.2417 15.3224C51.9117 15.3031 51.6857 16.0786 51.6157 16.247C51.5647 16.3703 51.5167 16.5515 51.4467 16.6626C51.4197 16.6974 51.3927 16.7323 51.3657 16.7672C51.2627 17.0988 51.1067 17.7029 50.8297 17.9331C50.6627 18.0711 50.3837 18.3021 50.1327 18.2778C50.1207 18.229 50.1297 18.227 50.1387 18.1922C50.2757 18.0561 50.2597 17.9308 50.3087 17.7573C50.3967 17.4486 50.4747 17.1241 50.5647 16.808C50.7687 16.0911 51.1937 15.4638 51.4847 14.7846C51.4597 14.735 51.4347 14.6857 51.4097 14.6361C51.2607 14.6188 51.2227 14.7809 51.0047 14.8161C50.9057 14.8322 50.8437 14.7824 50.7637 14.7673C50.7137 14.7739 50.6637 14.7804 50.6137 14.7866C50.4457 14.7699 50.1747 14.5876 50.1327 14.3458C50.2187 14.2792 50.3057 14.2129 50.3917 14.1465C50.4447 14.1233 50.4977 14.1003 50.5517 14.0774C50.6847 13.968 50.7547 13.7602 50.8677 13.6343C50.9787 13.509 51.1597 13.4305 51.2507 13.2956C51.3417 13.1607 51.3007 12.9685 51.4347 12.8466C51.6087 12.6873 51.9397 12.6377 52.1137 12.4806Z" fill-rule="evenodd"  fill="#003478" >
</path>
<path d="M62.3658 9.0399C62.3848 9.0433 62.4029 9.0467 62.4218 9.0501C62.4508 9.1105 62.4848 9.1528 62.5268 9.193C62.5728 9.2369 62.6158 9.2443 62.6098 9.3098C62.5798 9.5958 62.5028 9.8762 62.4158 9.9927C62.4138 10.0026 62.4118 10.0128 62.4088 10.0227C62.3648 10.2106 62.2938 10.1959 62.1908 10.3374C62.0998 10.4604 62.0778 10.5661 61.9548 10.6562C61.7068 10.8379 61.5299 11.0488 61.3489 11.1347C61.1038 11.2518 60.7478 11.5463 60.5058 11.465C60.4058 11.4315 60.3268 11.4148 60.2378 11.3439C60.2278 11.1903 60.3098 11.2011 60.3558 11.1053C60.3668 11.0398 60.4108 10.9802 60.4228 10.9151C60.4588 10.8501 60.5338 10.7549 60.5768 10.6922C60.5918 10.6438 60.6038 10.5913 60.6308 10.5482C60.7268 10.3955 60.7838 10.4037 60.8588 10.3291C61.0218 10.1282 61.0758 10.0536 61.2918 9.9255C61.3758 9.8288 61.5608 9.6791 61.6529 9.5476C61.8248 9.4243 61.9858 9.2899 62.1618 9.1576C62.2298 9.1063 62.3028 9.0997 62.3658 9.0399Z" fill-rule="evenodd"  fill="#003478" >
</path>
<path d="M61.007 11.7808C61.146 11.8088 61.206 11.893 61.26 11.98C61.12 12.8094 60.757 13.1853 60.327 13.5842C60.326 13.5901 60.324 13.5963 60.323 13.6026C60.331 13.6136 60.339 13.6247 60.346 13.6357C60.576 13.6723 60.723 13.7582 60.8 13.8999C60.799 13.9578 60.8171 14.0187 60.816 14.0762C60.837 14.1451 60.864 14.1896 60.875 14.2721C60.88 14.3107 60.878 14.3404 60.858 14.3716C60.778 14.5 60.825 14.7245 60.709 14.894C60.665 15.0548 60.4831 15.3144 60.484 15.4417C60.52 15.4536 60.506 15.4584 60.534 15.4312C60.612 15.3071 60.705 15.1747 60.81 15.0766C60.8321 15.0638 60.856 15.0553 60.875 15.0389C61.115 14.8331 61.264 14.5462 61.712 13.9552C61.824 13.8081 61.939 13.716 61.96 13.6681C62.056 13.4484 62.103 13.3112 62.313 13.1133C62.315 13.1113 62.331 13.0972 62.334 13.0969C62.355 13.0955 62.354 13.0921 62.358 13.0977C62.362 13.1025 62.357 13.1091 62.355 13.1159C62.33 13.2134 62.254 13.2891 62.219 13.3945C62.08 13.814 62.07 13.837 61.994 14.04C61.882 14.3433 61.742 14.6072 61.663 14.8181C61.552 15.1151 61.439 15.2985 61.478 15.247C61.402 15.3476 61.331 15.4281 61.279 15.5171C61.135 15.764 60.617 16.4707 60.503 16.6073C60.4141 16.715 60.242 16.8508 59.993 17.2272C59.847 17.4475 59.493 17.725 59.547 17.6904C59.434 17.7627 59.325 17.8322 59.291 17.8934C59.156 18.1397 58.948 18.1097 58.869 18.1074C58.751 17.8772 58.59 17.6062 58.579 17.3619C58.566 17.0815 58.623 16.7726 58.726 16.5186C58.952 15.9636 59.437 15.3445 59.612 15.1503C59.691 14.9901 59.749 14.8473 59.927 14.6256C59.9421 14.5987 59.987 14.5029 60.0391 14.415C60.119 14.2784 60.1791 14.1182 60.162 14.0743C60.068 13.8424 60.043 13.9308 59.963 13.8112C59.921 13.7486 59.864 13.7024 59.84 13.6771C59.825 13.6601 59.831 13.6207 59.8321 13.6116C59.834 13.5717 59.853 13.5365 59.818 13.4645C59.801 13.428 59.784 13.4016 59.805 13.3795C59.8321 13.3509 59.894 13.3083 59.938 13.267C59.978 13.2295 59.992 13.187 60.014 13.1377C60.21 12.6997 60.536 11.9882 60.639 11.8975C60.7351 11.8128 60.877 11.8179 61.007 11.7808Z" fill-rule="evenodd"  fill="#003478" >
</path>
<path d="M66.4776 11.2305C66.5646 11.2527 66.6476 11.2495 66.7106 11.2796C66.7856 11.2957 67.0756 11.3836 67.1226 11.4417C67.2436 11.5905 67.2696 11.643 67.4196 11.7629C67.4946 11.823 67.4036 12.0679 67.3476 12.1354C67.2566 12.2459 67.1106 12.2887 66.9756 12.34C66.8926 12.3715 66.8836 12.3964 66.8056 12.361C66.7256 12.3244 66.6096 12.285 66.5416 12.2397C66.3956 12.141 66.2896 11.7728 66.1996 11.5866C66.1926 11.5718 66.1886 11.5701 66.1936 11.5557C66.1986 11.5426 66.1966 11.5299 66.1956 11.5168C66.1946 11.4981 66.2076 11.4894 66.1956 11.4766C66.1856 11.4661 66.1776 11.4568 66.1716 11.4471C66.1586 11.4278 66.1516 11.4077 66.1396 11.3771C66.1406 11.3689 66.1436 11.3567 66.1576 11.3468C66.2096 11.3431 66.2256 11.3451 66.2596 11.332C66.3466 11.2991 66.3876 11.2731 66.4776 11.2305Z" fill-rule="evenodd"  fill="#003478" >
</path>
<path d="M63.9548 10.781C64.1198 10.8283 64.2388 10.8643 64.3398 10.9417C64.3628 10.9593 64.3588 10.9604 64.3608 10.9885C64.3688 11.0851 64.4268 11.1764 64.3618 11.2762C64.2918 11.3782 64.1658 11.4077 64.1018 11.4894C63.9598 11.6671 63.9098 11.7212 63.6838 11.7802C63.5748 11.8082 63.5198 11.9381 63.3838 11.9477C63.2368 11.6478 63.6518 11.5562 63.6728 11.2629C63.6728 11.2498 63.6728 11.2478 63.6648 11.2376C63.6238 11.1821 63.5818 11.1265 63.5408 11.071C63.5548 11.0157 63.5678 10.9601 63.5808 10.9048C63.6658 10.7844 63.7668 10.8039 63.9148 10.7813C63.9308 10.7787 63.9398 10.7764 63.9548 10.781Z" fill-rule="evenodd"  fill="#003478" >
</path>
<path d="M64.1844 11.7739C64.2494 11.7932 64.3114 11.8202 64.3584 11.8536C64.3864 11.874 64.3874 11.8766 64.3874 11.9103C64.3884 11.9721 64.3884 12.0336 64.3884 12.0954C64.3894 12.1203 64.3964 12.1334 64.3744 12.1473C64.2274 12.2419 64.0794 12.3366 63.9324 12.4313C63.9094 12.4659 63.8874 12.5005 63.8654 12.5351C63.6594 12.645 63.4724 12.7097 63.2264 12.7669C63.1204 12.7916 62.9404 12.9047 62.8134 12.8177C62.8824 12.5104 63.1484 12.4038 63.3684 12.3012C63.5094 12.2351 63.6164 12.094 63.7474 12.0132C63.7844 12.0311 63.8084 12.0302 63.8424 12.0206C63.9024 11.8743 64.0544 11.8224 64.1844 11.7739Z" fill-rule="evenodd"  fill="#003478" >
</path>
<path d="M65.0648 9.4481C65.4978 9.5737 65.2878 10.0528 65.2438 10.5046C65.2278 10.6628 65.2388 10.8232 65.2418 10.9819C65.2128 11.031 65.1468 11.0231 65.1468 11.1379C65.1448 11.533 65.1008 12.041 65.1398 12.4078C65.1568 12.5608 65.1168 12.6558 65.1618 12.7678C65.1718 12.8007 65.1448 12.8296 65.2878 12.8194C65.4918 12.7097 65.7308 12.7119 65.8788 12.9061C65.8458 13.0858 65.7728 13.0544 65.6918 13.1422C65.4488 13.4067 65.0828 13.9101 65.2438 14.3518C65.2468 14.3543 65.2498 14.3566 65.2528 14.3589C65.2558 14.3608 65.2578 14.3625 65.2598 14.3645C65.2748 14.3671 65.2898 14.3745 65.3048 14.3773C65.3338 14.3824 65.3428 14.3804 65.3628 14.362C65.5558 14.184 65.7688 14.1097 65.9768 13.8804C65.9938 13.8619 65.9988 13.8444 66.0238 13.8455C66.0848 13.8472 66.1488 13.8223 66.1768 13.8614C66.2118 13.9107 66.2608 13.9243 66.3088 13.968C66.4428 14.0921 66.3598 14.2517 66.3228 14.4014C66.3028 14.4243 65.8698 14.756 65.8428 14.7676C65.7898 14.79 65.7458 14.8048 65.7048 14.841C65.6088 14.9573 65.3298 15.0647 65.2968 15.1798C65.2958 15.186 65.2948 15.1922 65.2938 15.1985C65.3258 15.2705 65.3398 15.311 65.3328 15.3779C65.3168 15.5256 65.3268 15.4709 65.3608 15.5582C65.4108 15.6863 65.3338 15.8167 65.3738 15.9522C65.3828 15.9834 65.3708 15.9916 65.3798 16.0228C65.3538 16.0942 65.3558 16.1433 65.3388 16.179C65.3378 16.2751 65.3358 16.3712 65.3348 16.4673C65.3098 16.5903 65.2878 17.2811 65.2818 17.5263C65.2808 17.5583 65.2538 17.6791 65.2618 17.7905C65.2708 17.9237 65.3158 18.0476 65.3158 18.0476C65.3608 18.0756 65.3868 18.0513 65.4298 18.0297C65.4858 17.9382 65.4778 17.8265 65.5228 17.7239C65.6318 17.4458 65.6968 17.2777 65.7708 17.1521C65.7928 17.0608 65.8598 16.969 65.8918 16.9013C65.9358 16.8216 65.9218 16.7519 65.9698 16.6872C66.3678 16.6904 65.9118 17.9416 65.6608 18.5173C65.6228 18.6046 65.5578 18.8005 65.5498 18.8373C65.5388 18.8861 65.5288 18.9351 65.5188 18.9842C65.4788 19.0547 65.3668 19.1279 65.3258 19.1999C65.3178 19.2418 65.3108 19.2838 65.3028 19.3257C65.2978 19.3541 65.2868 19.3739 65.2718 19.3986C65.2208 19.4796 65.1358 19.5661 65.0698 19.6064C64.7078 19.5332 64.8138 19.3728 64.7718 19.1196C64.7548 19.0686 64.7388 19.0176 64.7228 18.9663C64.7328 18.8881 64.7438 18.8098 64.7548 18.7316C64.7188 18.4464 64.7698 18.1457 64.7648 17.8185C64.7528 16.9511 64.9198 16.031 64.6598 15.3448C64.5298 15.3277 64.0958 15.4888 64.0368 15.5503C63.9418 15.658 63.9578 15.8796 63.9268 16.0506C63.9078 16.1577 63.8698 16.1946 63.8438 16.2473C63.7608 16.4114 63.8028 16.7672 63.6958 16.9622C63.5228 17.2783 63.0058 17.1175 62.5928 17.0433C62.4358 17.0121 62.2788 16.9806 62.1208 16.9492C62.1048 16.9458 62.1028 16.9344 62.0938 16.92C62.0818 16.9001 62.0698 16.8803 62.0578 16.8607C61.9508 16.7666 61.8748 16.7343 61.8028 16.622C61.8618 16.283 61.9748 16.1294 62.0948 15.9043C62.1098 15.8428 62.1238 15.7813 62.1378 15.7195C62.1928 15.6282 62.3178 15.4763 62.2878 15.3133C62.2838 15.3028 62.2788 15.2923 62.2748 15.2818C62.2618 15.2827 62.2478 15.2835 62.2358 15.2847C62.0228 15.372 61.8428 15.6733 61.5868 15.6784C60.5748 15.713 61.4208 15.4142 61.5978 15.3297C61.6928 15.2665 61.8248 15.1755 61.9198 15.1123C62.2238 14.8734 62.5118 14.6576 62.7918 14.3832C62.8378 14.3385 62.9098 14.3487 62.9518 14.2965C62.9698 14.2528 62.9658 14.2293 62.9518 14.1905C62.7988 14.1902 62.4928 14.3804 62.3818 14.3095C62.4548 14.1341 62.7138 14.1372 62.8148 13.8551C62.8138 13.8452 62.7498 13.7786 62.7488 13.7687C62.7158 13.7018 62.6268 13.6476 62.6108 13.5708C62.6178 13.4951 62.6248 13.4192 62.6328 13.3435C62.6098 13.2698 62.5218 13.2429 62.5138 13.1488C62.5678 13.1266 62.6098 13.0918 62.6778 13.0918C62.7428 13.1326 62.9098 13.2811 62.9928 13.2534C63.3498 13.1349 63.7118 12.651 64.0358 12.7678C64.0758 12.8324 64.1158 12.8973 64.1558 12.9622C64.1618 12.9722 64.1618 12.9733 64.1598 12.9849C64.0828 13.3395 63.6298 13.6289 63.3998 13.7894C63.2978 13.8605 63.0628 14.0105 63.0538 14.1607C63.0638 14.1752 63.0738 14.1899 63.0838 14.2047C63.0908 14.2058 63.0968 14.2069 63.1028 14.2081C63.5438 13.8047 64.0848 13.7177 64.4538 13.1703C64.4778 13.0589 64.5008 12.9475 64.5238 12.8361C64.5958 12.4373 64.7088 12.056 64.6728 11.6883C64.6638 11.529 64.7938 11.4094 64.7798 11.2467C64.7378 10.7404 64.8458 10.1406 64.9548 9.5247C64.9978 9.5062 65.0368 9.48841 65.0648 9.4481ZM63.1408 13.354C62.9048 13.3202 63.0378 13.5462 63.0558 13.6122C63.0618 13.6165 63.0668 13.6207 63.0728 13.625C63.0948 13.6258 63.1178 13.6264 63.1398 13.6272C63.1718 13.5762 63.4838 13.3733 63.3908 13.2905C63.3788 13.2851 63.1528 13.3594 63.1408 13.354ZM63.5278 14.9006C63.4088 15.027 63.1508 15.0712 63.1008 15.2379C63.1548 15.2861 63.2178 15.2725 63.3088 15.3136C63.3468 15.3496 63.3858 15.3853 63.4238 15.421C63.4398 15.4207 63.4558 15.4204 63.4718 15.4202C63.4768 15.4114 63.4818 15.4026 63.4868 15.3938C63.5578 15.2804 63.5898 15.012 63.5628 14.9164C63.5508 14.9111 63.5388 14.9057 63.5268 14.9006L63.5278 14.9006ZM62.8678 15.9468C62.8168 15.9763 62.7668 16.0058 62.7168 16.0353C62.6948 16.101 62.6388 16.2694 62.7448 16.2524C62.8278 16.2201 62.9458 16.1674 62.9738 16.0526C62.9718 16.0426 62.9708 16.0327 62.9688 16.0231C62.9478 15.9817 62.9238 15.9653 62.8678 15.9468ZM64.5008 13.8237C64.4438 13.8486 64.3718 13.8398 64.3098 13.8665C64.2808 13.8999 64.2528 13.9331 64.2248 13.9665C64.1398 14.0493 63.9568 14.1182 63.8508 14.1692C63.8128 14.1687 63.7738 14.1681 63.7358 14.1678C63.6168 14.2112 63.3128 14.3603 63.2148 14.4399C63.1328 14.5074 62.9048 14.6208 62.9398 14.7948C62.9438 14.8084 62.9478 14.822 62.9518 14.8356C62.9768 14.8368 63.0028 14.8382 63.0278 14.8396C63.2638 14.7534 63.4508 14.5669 63.6918 14.4677C63.7628 14.3722 63.7648 14.3648 63.8758 14.3563C63.9428 14.3172 63.9878 14.2741 64.0788 14.239C64.2178 14.2574 64.3538 14.311 64.3878 14.4002C64.3768 14.4785 64.3658 14.5567 64.3548 14.635C64.3538 14.6381 64.3528 14.6412 64.3528 14.6443C64.3528 14.6446 64.3518 14.6449 64.3508 14.6452C64.2708 14.6848 63.9798 15.0979 64.0078 15.2274C64.0118 15.241 64.0158 15.2546 64.0198 15.2682C64.2508 15.292 64.5608 15.0366 64.6848 14.887C64.6898 14.8164 64.6738 14.7492 64.6568 14.6882C64.6258 14.5698 64.6438 14.4742 64.6558 14.3523C64.6398 14.2174 64.5538 14.0933 64.5588 13.9561C64.5598 13.9147 64.5668 13.8801 64.5548 13.843C64.5368 13.8364 64.5188 13.8302 64.5008 13.8237Z" fill-rule="evenodd"  fill="#003478" >
</path>
<path d="M12.1191 48.2626L12.1731 48.0461L15.9061 47.6532L12.8421 45.3739L12.8971 45.1545L18.0661 44.6023C18.0791 44.6 18.1021 44.5977 18.1331 44.5949C18.7041 44.5325 19.0581 44.3069 19.1931 43.9185L19.3721 43.9696L18.7301 46.5366L18.5511 46.4853C18.5831 46.2654 18.5921 46.0995 18.5751 45.9893C18.5581 45.8773 18.5161 45.8132 18.4471 45.7934C18.3681 45.7707 18.1971 45.7735 17.9321 45.8019C17.8951 45.8061 17.8691 45.809 17.8521 45.8104L14.4041 46.1585L16.3321 47.5965L17.4001 47.4925C17.7751 47.4531 18.0271 47.3913 18.1521 47.3082C18.2771 47.2249 18.3761 47.0851 18.4491 46.8921L18.6281 46.9431L18.0071 49.424L17.8281 49.3727C17.8631 49.1655 17.8731 49.0048 17.8551 48.8925C17.8361 48.7797 17.7921 48.7134 17.7221 48.6935C17.6761 48.6805 17.6141 48.6731 17.5351 48.6739C17.4561 48.6754 17.3211 48.6842 17.1291 48.702L13.7381 49.0322L16.4611 51.0338C16.5401 51.0936 16.6241 51.1475 16.7111 51.1934C16.7991 51.2376 16.8831 51.2725 16.9651 51.2957C17.0711 51.3263 17.1691 51.2949 17.2601 51.2022C17.3521 51.1095 17.4251 50.9635 17.4791 50.7679L17.6591 50.815L17.1961 52.6654L17.0171 52.6141C17.0501 52.3454 17.0121 52.107 16.9051 51.902C16.7961 51.6968 16.6001 51.4919 16.3151 51.2881L12.1191 48.2626ZM16.6911 52.9472L14.0541 52.8485C13.5391 52.8293 13.1471 52.8593 12.8801 52.937C12.6121 53.0161 12.3741 53.1552 12.1611 53.3545C11.9161 53.5926 11.7291 53.8976 11.6011 54.2712C11.4741 54.6446 11.4011 55.1007 11.3831 55.6392C11.3481 56.7051 11.5091 57.4803 11.8621 57.9668C12.2161 58.4532 12.8091 58.7126 13.6421 58.7437L15.9061 58.8285C16.2991 58.843 16.5771 58.9169 16.7421 59.0493C16.9071 59.182 17.0061 59.4073 17.0371 59.7265L17.2221 59.7333L17.2901 57.6448L17.1051 57.6379C17.0831 57.9736 16.9871 58.2074 16.8151 58.3375C16.6431 58.4676 16.3431 58.5241 15.9161 58.5082L13.6601 58.4237C13.1841 58.4059 12.8341 58.3398 12.6111 58.2264C12.3881 58.113 12.1941 57.92 12.0301 57.6465C11.9101 57.4537 11.8191 57.2176 11.7601 56.9347C11.7001 56.6535 11.6741 56.3519 11.6851 56.0287C11.7081 55.3305 11.8981 54.8246 12.2541 54.5128C12.6111 54.1998 13.1591 54.0578 13.9001 54.0853L16.6511 54.1882C16.8871 54.197 17.0381 54.2517 17.1061 54.3503C17.1741 54.4495 17.2021 54.6604 17.1911 54.9836L17.1881 55.08L17.3731 55.0868L17.4681 52.1753L17.2831 52.1682C17.2721 52.5061 17.2291 52.7215 17.1531 52.8165C17.0791 52.9129 16.9241 52.956 16.6911 52.9472ZM11.5361 60.8745L11.7181 60.8366C11.7791 61.1696 11.8521 61.3768 11.9391 61.4582C12.0261 61.5381 12.1831 61.5551 12.4131 61.5075L16.6881 60.6177C16.9171 60.5698 17.0581 60.4905 17.1111 60.3816C17.1651 60.2708 17.1621 60.0491 17.1011 59.716L17.2831 59.678L17.7891 62.4645L17.6071 62.5025C17.5461 62.168 17.4721 61.9611 17.3831 61.88C17.2961 61.7969 17.1371 61.7802 16.9071 61.8281L15.0671 62.2111L15.6651 65.5069L17.5061 65.1237C17.7351 65.0761 17.8761 64.9967 17.9291 64.885C17.9821 64.7742 17.9791 64.5522 17.9181 64.2177L18.1001 64.18L18.6061 66.9665L18.4241 67.0042C18.3641 66.6739 18.2911 66.4682 18.2041 66.3896C18.1181 66.3097 17.9591 66.2944 17.7271 66.3426L13.4521 67.2324C13.2231 67.2803 13.0821 67.3577 13.0301 67.4665C12.9761 67.5745 12.9811 67.7948 13.0411 68.1247L12.8591 68.1627L12.3531 65.3762L12.5351 65.3383C12.5961 65.6728 12.6691 65.88 12.7561 65.9616C12.8441 66.0444 13.0011 66.0611 13.2301 66.0135L15.4151 65.5588L14.8171 62.2632L12.6321 62.7179C12.4031 62.7658 12.2631 62.8446 12.2111 62.9566C12.1591 63.0669 12.1631 63.2885 12.2241 63.6227L12.0421 63.6607L11.5361 60.8745ZM15.7191 69.9616L16.5871 72.2642L18.4961 70.0724L15.7191 69.9616ZM13.2031 69.0242L13.3741 68.9499C13.5131 69.1829 13.6691 69.3507 13.8411 69.4513C14.0141 69.552 14.3071 69.6123 14.7231 69.6279L18.4191 69.779C18.4311 69.7799 18.4481 69.7802 18.4691 69.7787C18.6081 69.7855 18.7021 69.7787 18.7511 69.7578C18.7951 69.7388 18.8301 69.7076 18.8621 69.6648C18.8921 69.6208 18.9161 69.567 18.9341 69.5021C19.1131 69.6089 19.2861 69.6996 19.4571 69.7748C19.6271 69.8499 19.7911 69.9091 19.9521 69.9511L20.0061 70.0954L16.5391 74.1155C16.5321 74.1245 16.5221 74.1367 16.5101 74.1512C15.9641 74.7782 15.7621 75.2794 15.9051 75.6567L15.9341 75.7352L15.7631 75.8094L14.7111 73.0219L14.8821 72.9476C15.0001 73.1911 15.0961 73.3558 15.1711 73.4428C15.2471 73.5293 15.3191 73.5585 15.3901 73.5278C15.4411 73.506 15.5031 73.4601 15.5781 73.3892C15.6511 73.3201 15.7441 73.2197 15.8561 73.0905L16.3661 72.5102L15.4001 69.9491L14.7061 69.9174C14.5951 69.9111 14.4961 69.9137 14.4091 69.9267C14.3191 69.9392 14.2421 69.9602 14.1741 69.9896C14.0661 70.0361 14.0031 70.1288 13.9821 70.268C13.9601 70.4075 13.9871 70.5741 14.0611 70.77L14.0741 70.8046L13.9021 70.8789L13.2031 69.0242ZM21.1841 74.5313L19.1561 81.9558L19.3351 82.2628L23.2571 79.6391C23.5901 79.416 23.8591 79.3102 24.0651 79.3216C24.2711 79.3329 24.4701 79.4605 24.6631 79.7062L24.8201 79.6011L23.7841 77.8254L23.6271 77.9306C23.7821 78.2246 23.8231 78.4766 23.7501 78.69C23.6771 78.9035 23.4591 79.1302 23.1001 79.3709L20.6961 80.9796L22.2671 75.2258L21.0901 73.2087L20.9261 73.3181L20.9731 73.3997C21.1341 73.6738 21.2061 73.8694 21.1931 73.9871C21.1791 74.1027 21.0551 74.2399 20.8221 74.3961L17.6891 76.4926C17.3551 76.7157 17.0861 76.8214 16.8801 76.8101C16.6741 76.7987 16.4751 76.6712 16.2821 76.4254L16.1251 76.5306L17.1631 78.3099L17.3201 78.205C17.1621 77.9111 17.1191 77.6565 17.1951 77.445C17.2701 77.2319 17.4881 77.0051 17.8471 76.7644L21.1841 74.5313ZM31.0141 85.9073L31.0561 85.947C31.1191 86.0085 31.1751 86.0502 31.2211 86.07C31.2681 86.0899 31.3201 86.0978 31.3771 86.0927L31.6001 86.3073L30.7051 87.8992L30.5661 87.8439C30.6921 87.2668 30.7181 86.7668 30.6461 86.3453C30.5731 85.9252 30.4021 85.5836 30.1311 85.3222C29.9981 85.1944 29.8931 85.132 29.8171 85.1332C29.7391 85.1343 29.6181 85.2338 29.4511 85.4325L26.5221 88.9166C26.3651 89.1022 26.2961 89.2579 26.3131 89.382C26.3301 89.5053 26.4501 89.6757 26.6751 89.892L26.7421 89.9563L26.6181 90.1037L24.5411 88.1016L24.6651 87.9542L24.7321 88.0185C24.9581 88.2368 25.1301 88.3485 25.2481 88.3562C25.3661 88.3615 25.5041 88.2714 25.6601 88.0854L28.5891 84.6017C28.7531 84.4072 28.8311 84.2686 28.8261 84.1841C28.8211 84.1002 28.7521 83.9931 28.6181 83.8632C28.3461 83.6016 28.0131 83.4545 27.6171 83.4227C27.2201 83.3901 26.7601 83.4718 26.2321 83.6654L26.1611 83.5177L27.5521 82.4048L27.7681 82.6134C27.7721 82.6764 27.7851 82.7316 27.8091 82.7801C27.8321 82.8275 27.8781 82.883 27.9441 82.9465L27.9881 82.9888L31.0141 85.9073ZM28.8821 91.8739L33.0491 94.9991L34.4111 93.7902L34.2751 93.6674C33.6961 93.9625 33.1931 94.1031 32.7681 94.0884C32.3441 94.0756 31.9171 93.9075 31.4871 93.5852L30.9911 93.2133C30.7811 93.056 30.6671 92.9392 30.6511 92.8638C30.6351 92.7884 30.7101 92.6226 30.8771 92.3669L32.1091 90.4844L32.5561 90.82C32.9841 91.1406 33.2441 91.4785 33.3401 91.8348C33.4361 92.1903 33.3671 92.5758 33.1341 92.9905L33.2721 93.0943L34.8141 90.7361L34.6761 90.6324C34.3861 90.9326 34.0811 91.0831 33.7611 91.0848C33.4411 91.0854 33.0791 90.9351 32.6771 90.6341L32.2301 90.2985L33.4731 88.3984L33.5691 88.2499C33.6221 88.1699 33.6701 88.1308 33.7151 88.1328C33.7601 88.1365 33.8351 88.177 33.9411 88.2564L34.5131 88.6858C34.6571 88.7938 34.7771 88.8908 34.8741 88.9789C34.9701 89.0671 35.0431 89.1459 35.0931 89.2182C35.1541 89.3049 35.2111 89.4036 35.2621 89.5124C35.3141 89.6213 35.3631 89.7491 35.4101 89.8971C35.4591 90.0436 35.5031 90.2367 35.5421 90.4768C35.5831 90.718 35.6191 91.0043 35.6501 91.3368L35.7961 91.4456L36.1621 89.6799L32.2391 86.7384L32.1331 86.9011C32.3931 87.0956 32.5391 87.2526 32.5721 87.3725C32.6051 87.4899 32.5551 87.6523 32.4211 87.857L29.9231 91.6772C29.7891 91.8822 29.6651 91.9873 29.5501 91.9944C29.4341 92.0007 29.2471 91.9063 28.9881 91.7115L28.8821 91.8739ZM34.4641 95.9164L34.5361 95.7339C34.8541 95.8297 35.1521 95.864 35.4291 95.8351C35.7071 95.8082 36.0531 95.6914 36.4711 95.4876L38.3391 94.5677L37.6671 91.4536C37.6041 91.1673 37.5161 90.949 37.4011 90.8002C37.2871 90.6528 37.1121 90.5252 36.8781 90.4186L36.7771 90.3724L36.8491 90.1899L39.6791 91.4765L39.6071 91.6591C39.4271 91.5837 39.2811 91.5437 39.1711 91.5406C39.0611 91.5389 38.9911 91.5746 38.9621 91.65C38.9431 91.6962 38.9371 91.7591 38.9431 91.8379C38.9481 91.9156 38.9701 92.044 39.0081 92.2192L39.4031 94.049L41.1551 93.1858C41.2661 93.1334 41.3581 93.0795 41.4261 93.0259C41.4941 92.9712 41.5371 92.9205 41.5561 92.8743C41.5811 92.8094 41.5711 92.7374 41.5221 92.6574C41.4751 92.5784 41.3941 92.4996 41.2831 92.421L41.3561 92.2385L43.0531 93.0101L42.9811 93.1926C42.6841 93.1127 42.4121 93.0858 42.1641 93.1118C41.9161 93.1382 41.6351 93.2292 41.3201 93.384L39.4551 94.2973L40.0541 97.0619C40.1201 97.3505 40.1731 97.5716 40.2171 97.7241C40.2611 97.8769 40.2991 97.9818 40.3331 98.0393C40.4021 98.1688 40.4931 98.2851 40.6071 98.3902C40.7201 98.4948 40.8631 98.594 41.0371 98.6887L40.9651 98.8713L38.1191 97.5781L38.1921 97.3956C38.3741 97.469 38.5221 97.5033 38.6361 97.499C38.7501 97.4948 38.8231 97.4511 38.8561 97.3678C38.8871 97.2884 38.8831 97.1535 38.8411 96.9633C38.8371 96.9409 38.8331 96.9219 38.8301 96.908L38.3911 94.8146L36.5901 95.6934C36.3971 95.7914 36.2671 95.8663 36.1981 95.9145C36.1301 95.9649 36.0871 96.0154 36.0671 96.0644C36.0401 96.1333 36.0531 96.2141 36.1101 96.3056C36.1661 96.3966 36.2581 96.4851 36.3821 96.5727L36.3101 96.7555L34.4641 95.9164ZM48.3361 94.3982L44.4011 93.2692L44.3441 93.2527C44.2591 93.2283 44.1941 93.2008 44.1541 93.1697C44.1121 93.1382 44.0761 93.0954 44.0471 93.041L43.7661 92.9602L42.9981 94.6284L43.1241 94.7253C43.5121 94.2964 43.8881 93.9996 44.2551 93.8358C44.6211 93.6714 44.9811 93.6408 45.3331 93.742C45.5081 93.7922 45.6151 93.8539 45.6551 93.9265C45.6961 93.9991 45.6841 94.1609 45.6211 94.4138L44.4881 98.9419C44.4271 99.1836 44.3431 99.3305 44.2361 99.3832C44.1271 99.4337 43.9271 99.4178 43.6331 99.3336L43.5461 99.3084L43.4981 99.5L46.1971 100.275L46.2451 100.083L46.1581 100.058C45.8661 99.9745 45.6861 99.8813 45.6191 99.7801C45.5521 99.6772 45.5471 99.5051 45.6081 99.2633L46.7411 94.735C46.8051 94.4767 46.8721 94.329 46.9401 94.2905C47.0081 94.2519 47.1271 94.2568 47.3001 94.3061C47.6521 94.4073 47.9501 94.6281 48.1931 94.9671C48.4361 95.3078 48.6241 95.7662 48.7571 96.3416L48.9041 96.3229L49.0261 94.4696L48.7371 94.3869C48.6891 94.4192 48.6391 94.4373 48.5891 94.4424C48.5391 94.4472 48.4721 94.437 48.3891 94.4132L48.3361 94.3982ZM52.6011 95.0232L52.5791 95.2202L52.4891 95.2083C52.1871 95.1687 51.9871 95.1814 51.8861 95.2463C51.7871 95.3098 51.7231 95.4666 51.6951 95.7149L51.1641 100.344C51.1361 100.589 51.1621 100.756 51.2441 100.844C51.3281 100.933 51.5191 100.997 51.8211 101.037L51.9111 101.049L51.8881 101.246L49.1061 100.88L49.1291 100.683L49.2181 100.695C49.5221 100.735 49.7241 100.722 49.8231 100.657C49.9211 100.593 49.9851 100.438 50.0131 100.192L50.5441 95.5635C50.5721 95.3127 50.5471 95.144 50.4671 95.0567C50.3871 94.9697 50.1901 94.9062 49.8791 94.8651L49.9011 94.6683L52.6011 95.0232ZM56.5241 101.279C57.0511 101.299 57.4951 101.19 57.8581 100.953C58.2211 100.717 58.5701 100.305 58.9031 99.72L59.0791 99.7435L58.5561 101.553L53.3891 101.36L53.3961 101.162C53.7121 101.174 53.9171 101.144 54.0111 101.071C54.1031 100.998 54.1541 100.838 54.1621 100.588L54.3151 95.9269C54.3231 95.6772 54.2831 95.5116 54.1951 95.4323C54.1061 95.3512 53.9041 95.305 53.5871 95.2931L53.5931 95.095L56.2431 95.1939L56.2361 95.392C55.9181 95.3801 55.7131 95.4113 55.6191 95.4856C55.5241 95.5581 55.4731 95.7203 55.4651 95.97L55.3141 100.609C55.3041 100.921 55.3251 101.104 55.3771 101.158C55.4291 101.212 55.5831 101.244 55.8411 101.253L56.5241 101.279ZM60.3071 101.396L60.2851 101.199C60.5991 101.158 60.7971 101.095 60.8791 101.007C60.9601 100.92 60.9871 100.752 60.9581 100.504L60.4271 95.8753C60.3991 95.627 60.3351 95.4703 60.2371 95.4065C60.1381 95.3413 59.9311 95.3294 59.6171 95.3708L59.5941 95.174L64.3471 94.549L65.1781 96.1236L65.0021 96.1469C64.7711 95.9224 64.5651 95.7353 64.3841 95.5851C64.2051 95.4351 64.0521 95.3234 63.9241 95.2492C63.7961 95.1729 63.6801 95.1131 63.5731 95.0692C63.4671 95.0252 63.3631 94.9926 63.2641 94.9722C63.1821 94.9541 63.0781 94.9476 62.9511 94.951C62.8251 94.9546 62.6751 94.9685 62.5001 94.9915L61.8071 95.0828C61.6781 95.0995 61.5971 95.1233 61.5621 95.1525C61.5271 95.1834 61.5151 95.2469 61.5271 95.3441L61.5471 95.5238L61.8111 97.8261L62.3541 97.755C62.8401 97.6909 63.2031 97.5432 63.4401 97.3136C63.6771 97.0829 63.8101 96.7527 63.8381 96.3215L64.0051 96.2997L64.3331 99.157L64.1651 99.1791C64.0801 98.7037 63.8891 98.3681 63.5971 98.1722C63.3021 97.9764 62.8971 97.912 62.3791 97.9803L61.8371 98.0515L62.0991 100.333C62.1341 100.642 62.1821 100.82 62.2411 100.864C62.3001 100.909 62.4571 100.914 62.7121 100.881L63.3131 100.801C63.8331 100.733 64.2561 100.551 64.5791 100.257C64.9041 99.9635 65.1901 99.4989 65.4371 98.8642L65.6141 98.8579L65.3571 100.732L60.3071 101.396ZM69.7461 93.9146C69.6551 93.6844 69.5531 93.5526 69.4401 93.5214C69.3271 93.488 69.1271 93.537 68.8361 93.6691L68.7641 93.4866L71.2681 92.3482L71.3401 92.5307L71.2581 92.5684C70.9791 92.6946 70.8131 92.8111 70.7581 92.9188C70.7031 93.0268 70.7211 93.1966 70.8131 93.4293L71.8891 96.1426C72.1781 96.8728 72.5301 97.3454 72.9461 97.5594C73.3601 97.7737 73.8691 97.7439 74.4701 97.471C74.7471 97.3445 74.9921 97.1926 75.2041 97.0149C75.4181 96.838 75.5801 96.6503 75.6931 96.4525C75.8551 96.1775 75.9361 95.9079 75.9381 95.6435C75.9391 95.3787 75.8481 95.0113 75.6621 94.5416L74.7791 92.3164C74.6131 91.8958 74.4381 91.6285 74.2551 91.5165C74.0721 91.4045 73.8341 91.4099 73.5411 91.5307L73.4681 91.3481L75.2641 90.5315L75.3371 90.714C75.0801 90.8793 74.9311 91.0703 74.8891 91.2863C74.8461 91.5023 74.9011 91.8036 75.0551 92.1914L75.9401 94.4243C76.2661 95.246 76.2971 95.9312 76.0351 96.4797C75.7721 97.0285 75.1841 97.5115 74.2671 97.9282C73.8041 98.1385 73.3871 98.261 73.0171 98.295C72.6471 98.329 72.3101 98.276 72.0051 98.1385C71.7471 98.0169 71.5281 97.8446 71.3481 97.6175C71.1691 97.391 70.9781 97.0234 70.7771 96.5154L69.7461 93.9146ZM76.7861 90.3804L83.7191 92.5523L84.0061 92.3604L81.5561 88.1617C81.3471 87.8045 81.2491 87.5162 81.2591 87.2957C81.2701 87.0752 81.3891 86.8614 81.6191 86.6554L81.5201 86.4873L79.8621 87.597L79.9601 87.7648C80.2351 87.5985 80.4701 87.5542 80.6701 87.6328C80.8691 87.7113 81.0801 87.944 81.3051 88.3292L82.8071 90.9034L77.4341 89.2213L75.5511 90.4816L75.6531 90.6573L75.7291 90.6063C75.9861 90.4348 76.1681 90.3571 76.2781 90.3716C76.3861 90.3858 76.5141 90.5187 76.6591 90.7684L78.6181 94.1238C78.8261 94.481 78.9251 94.7693 78.9141 94.9898C78.9031 95.2103 78.7841 95.4241 78.5551 95.6301L78.6531 95.7982L80.3151 94.6865L80.2171 94.5181C79.9421 94.6882 79.7041 94.7335 79.5071 94.6525C79.3081 94.572 79.0961 94.3392 78.8711 93.954L76.7861 90.3804ZM84.1141 83.9911L84.2301 84.145L84.1601 84.2057C83.9241 84.4109 83.7931 84.5742 83.7671 84.6969C83.7401 84.8174 83.8011 84.9756 83.9481 85.17L86.6891 88.7944C86.8341 88.9866 86.9651 89.0818 87.0811 89.0796C87.1981 89.0776 87.3741 88.9747 87.6111 88.7694L87.6811 88.7088L87.7981 88.863L85.6201 90.7514L85.5031 90.5972L85.5731 90.5368C85.8111 90.3305 85.9431 90.1666 85.9681 90.0448C85.9931 89.9248 85.9331 89.7681 85.7881 89.5756L83.0471 85.9515C82.8981 85.7548 82.7681 85.6576 82.6531 85.6587C82.5401 85.6593 82.3601 85.7667 82.1161 85.9785L82.0001 85.8242L84.1141 83.9911ZM88.6261 80.4824L90.0871 84.2196L86.4001 82.9987C86.2501 82.9491 86.1301 82.9029 86.0391 82.8592C85.9461 82.8164 85.8791 82.7756 85.8411 82.7379C85.7891 82.688 85.7831 82.6069 85.8241 82.4938C85.8651 82.3824 85.9611 82.2194 86.1121 82.0012L85.9741 81.8685L84.0931 84.1062L84.2301 84.2388L84.2961 84.1609C84.5401 83.8703 85.0521 83.8516 85.8351 84.1039C85.8371 84.1059 85.8381 84.107 85.8381 84.107L90.7801 85.7041L90.9221 85.5351L88.8631 80.3265L88.8601 80.3236C88.6131 79.6881 88.6091 79.1623 88.8481 78.747L88.7101 78.614L87.4651 80.0946L87.6061 80.2241C87.7461 80.0708 87.8801 79.9735 88.0111 79.9316C88.1421 79.8896 88.2501 79.9092 88.3361 79.9917C88.3941 80.0475 88.4441 80.1119 88.4871 80.1796C88.5291 80.2496 88.5761 80.3508 88.6261 80.4824ZM93.8511 81.676L93.6931 81.5709C93.8611 81.2834 93.9401 81.0785 93.9281 80.9552C93.9151 80.833 93.8111 80.7054 93.6131 80.5731L89.9191 78.1015C89.7211 77.9692 89.5671 77.9238 89.4591 77.9649C89.3501 78.0069 89.2111 78.1716 89.0431 78.4593L88.8861 78.3541L91.4241 74.0055L93.0891 74.3048L92.9951 74.4658C92.6871 74.5171 92.4221 74.5701 92.1991 74.6263C91.9771 74.681 91.8001 74.7382 91.6651 74.7975C91.5301 74.8562 91.4131 74.9151 91.3141 74.9761C91.2161 75.037 91.1261 75.1031 91.0491 75.1734C90.9841 75.23 90.9141 75.312 90.8371 75.4197C90.7601 75.5274 90.6761 75.6609 90.5831 75.8205L90.2121 76.4555C90.1441 76.5725 90.1101 76.6547 90.1091 76.7032C90.1091 76.7511 90.1481 76.8007 90.2261 76.8526L90.3691 76.9484L92.2061 78.1778L92.4951 77.6817C92.7551 77.237 92.8771 76.8418 92.8591 76.5C92.8411 76.157 92.6851 75.8389 92.3891 75.5447L92.4791 75.3913L94.7591 76.9169L94.6691 77.0703C94.2701 76.8424 93.9071 76.7894 93.5801 76.9099C93.2531 77.0312 92.9521 77.328 92.6751 77.8019L92.3861 78.298L94.2061 79.516C94.4531 79.681 94.6121 79.7536 94.6811 79.7323C94.7501 79.7108 94.8531 79.5832 94.9891 79.3502L95.3101 78.8008C95.5881 78.3241 95.7221 77.858 95.7121 77.4036C95.7041 76.949 95.5461 76.4186 95.2411 75.814L95.3481 75.6623L96.5471 77.0556L93.8511 81.676ZM97.4321 75.3448L98.5241 72.5901L98.3531 72.5128L98.3191 72.6015C98.2001 72.9017 98.0891 73.0811 97.9861 73.142C97.8851 73.2021 97.7281 73.1837 97.5151 73.0871L95.5661 72.2009L95.6911 71.8835C95.7941 71.6255 95.9371 71.4407 96.1211 71.3324C96.3061 71.2244 96.6901 71.1476 97.2771 71.1042L99.1631 70.9775L99.9001 69.1202L99.7141 69.0361C99.7091 69.0491 99.7041 69.067 99.6971 69.0919C99.6891 69.1168 99.6841 69.1333 99.6801 69.1438C99.5371 69.506 99.0961 69.7243 98.3571 69.8006C98.3251 69.8048 98.2991 69.8071 98.2811 69.8085L97.3561 69.9139C97.3441 69.9148 97.3241 69.9168 97.2931 69.9213C96.8331 69.9746 96.4791 70.0959 96.2271 70.2827C96.3371 69.7847 96.3371 69.3745 96.2291 69.0553C96.1211 68.7359 95.9031 68.5026 95.5781 68.3549C95.1261 68.1494 94.6801 68.2106 94.2391 68.5377C93.7971 68.8646 93.4231 69.4145 93.1171 70.1869L92.0721 72.8223L92.2431 72.9C92.3671 72.5876 92.4791 72.4016 92.5821 72.3421C92.6831 72.2831 92.8411 72.3021 93.0561 72.3999L97.0651 74.222C97.2771 74.3187 97.3991 74.4273 97.4301 74.5458C97.4611 74.6659 97.4171 74.8768 97.2971 75.1785L97.2621 75.2672L97.4321 75.3448ZM93.5271 71.2743C93.3011 71.1717 93.1691 71.0696 93.1321 70.9684C93.0951 70.8684 93.1301 70.6847 93.2351 70.4188C93.4171 69.9596 93.6621 69.6447 93.9701 69.474C94.2771 69.3045 94.6081 69.3005 94.9641 69.4621C95.3551 69.6398 95.5991 69.9086 95.6981 70.2674C95.7961 70.6257 95.7421 71.0637 95.5381 71.5807L95.3331 72.0955L93.5271 71.2743ZM98.2261 67.1419L98.2571 66.9727C98.9621 66.8398 99.4901 66.6348 99.8421 66.3613C100.193 66.0875 100.412 65.7085 100.5 65.2271C100.569 64.8465 100.533 64.5242 100.391 64.2602C100.249 63.9963 100.024 63.8328 99.7151 63.7682C99.4351 63.71 99.1781 63.775 98.9451 63.9623C98.7121 64.1494 98.4241 64.5463 98.0791 65.1509C97.7091 65.8 97.3631 66.2377 97.0401 66.4648C96.7181 66.6904 96.3511 66.7604 95.9391 66.6745C95.4581 66.5747 95.1071 66.3227 94.8861 65.9211C94.6651 65.5194 94.6081 65.0259 94.7141 64.4417C94.7921 64.0099 94.9451 63.585 95.1691 63.1689C95.2221 63.0686 95.2511 63.0059 95.2561 62.9804C95.2661 62.9254 95.2571 62.8534 95.2311 62.763C95.2051 62.674 95.1591 62.5651 95.0941 62.4376L95.1221 62.2879L97.0581 62.691L97.0281 62.8602C96.4131 62.9594 95.9281 63.1485 95.5711 63.4283C95.2131 63.7081 94.9941 64.0681 94.9141 64.5097C94.8601 64.8073 94.8921 65.0687 95.0091 65.2966C95.1271 65.5248 95.3021 65.6623 95.5331 65.7102C95.7721 65.7601 95.9921 65.7062 96.1891 65.5483C96.3881 65.3918 96.6481 65.0318 96.9721 64.4709C97.2021 64.0666 97.3811 63.7744 97.5071 63.5927C97.6341 63.4127 97.7521 63.2718 97.8641 63.172C98.1101 62.9526 98.3561 62.803 98.6011 62.7267C98.8441 62.6499 99.1081 62.6419 99.3921 62.7009C99.9311 62.8132 100.314 63.1082 100.545 63.5867C100.776 64.0652 100.825 64.6713 100.692 65.4035C100.616 65.8224 100.462 66.2428 100.23 66.6677C100.174 66.7757 100.142 66.844 100.138 66.8707C100.127 66.9285 100.136 67.0022 100.162 67.0909C100.188 67.1785 100.235 67.2879 100.302 67.4161L100.275 67.5683L98.2261 67.1419ZM95.6081 57.8556L95.7931 57.8695L95.7861 57.9654C95.7651 58.2911 95.7881 58.5045 95.8541 58.6088C95.9181 58.7114 96.0681 58.7718 96.3011 58.7891L100.645 59.1145C100.875 59.1318 101.03 59.0944 101.107 59.0023C101.186 58.9084 101.236 58.7007 101.257 58.3752L101.263 58.2791L101.448 58.2928L101.252 61.2867L101.068 61.2725L101.074 61.1767C101.095 60.8496 101.073 60.6347 101.007 60.5318C100.942 60.4306 100.794 60.3705 100.564 60.3533L96.2191 60.0278C95.9841 60.0103 95.8281 60.0463 95.7511 60.137C95.6741 60.2263 95.6251 60.44 95.6031 60.7756L95.4181 60.7617L95.6081 57.8556ZM95.3511 52.0568L95.3461 51.9981C95.3391 51.9066 95.3251 51.8357 95.3031 51.7875C95.2821 51.7388 95.2491 51.6945 95.2041 51.6566L95.1781 51.3377L96.8461 50.8263L96.9131 50.9686C96.4531 51.2988 96.1151 51.6449 95.8991 52.0058C95.6851 52.3661 95.5931 52.7411 95.6251 53.1309C95.6401 53.3211 95.6771 53.4432 95.7341 53.4985C95.7911 53.5538 95.9431 53.5697 96.1921 53.5464L100.553 53.1379C100.786 53.1161 100.936 53.0529 101.003 52.95C101.068 52.8471 101.089 52.6348 101.062 52.3125L101.055 52.2164L101.239 52.1994L101.483 55.18L101.298 55.1976L101.29 55.1015C101.264 54.7764 101.209 54.5694 101.128 54.4776C101.045 54.3875 100.887 54.3532 100.655 54.3747L96.2931 54.7835C96.0501 54.8061 95.9041 54.8504 95.8541 54.9156C95.8041 54.9808 95.7861 55.1094 95.8021 55.3025C95.8341 55.6922 95.9841 56.0429 96.2531 56.3556C96.5221 56.6691 96.9121 56.9457 97.4211 57.1895L97.3791 57.3494L95.6521 57.1476L95.6271 56.8369C95.6651 56.7887 95.6901 56.7385 95.7041 56.6852C95.7171 56.6336 95.7191 56.5599 95.7111 56.4653L95.7061 56.4023L95.3511 52.0568ZM99.3221 45.2968C99.5461 45.2369 99.6821 45.1502 99.7301 45.0385C99.7781 44.9263 99.7651 44.7105 99.6911 44.3911L99.6691 44.2978L99.8491 44.2496L100.527 47.1614L100.347 47.2093L100.326 47.116C100.252 46.7994 100.169 46.6038 100.076 46.5264C99.9851 46.4499 99.8271 46.4419 99.6031 46.5018L97.7031 47.0089L95.6711 49.5688C95.5371 49.735 95.4551 49.8843 95.4281 50.0159C95.4001 50.1477 95.4101 50.3155 95.4571 50.5162C95.4621 50.5357 95.4701 50.5658 95.4831 50.6072C95.4951 50.6483 95.5041 50.6814 95.5101 50.7067L95.3301 50.7546L94.5941 47.5917L94.7731 47.5438C94.8271 47.7722 94.8861 47.9401 94.9511 48.0472C95.0171 48.1541 95.0871 48.1977 95.1641 48.177C95.2121 48.164 95.2601 48.1368 95.3081 48.0926C95.3561 48.0503 95.4281 47.9647 95.5221 47.8386L96.9301 46.0349L94.9221 45.0881C94.8101 45.0337 94.7171 44.9977 94.6431 44.9776C94.5711 44.9583 94.5111 44.9552 94.4651 44.9674C94.3911 44.9869 94.3431 45.0547 94.3201 45.1703C94.2981 45.286 94.3011 45.445 94.3311 45.6446L94.1511 45.6925L93.6961 43.736L93.8761 43.6878C94.0161 44.1541 94.3881 44.5271 94.9921 44.8089L95.0271 44.8259L97.2281 45.8557L99.3221 45.2968Z" fill-rule="evenodd"  fill="#003478" >
</path>
</svg>
